<svg fill="none" height="30" viewBox="0 0 30 30" width="30" xmlns="http://www.w3.org/2000/svg"><g fill="#000"><path d="m21.5963 21.1243c-1.4648-1.4613-3.4902-3.4618-5.4287-5.267 1.5556-1.8345 3.3455-3.4625 5.0876-5.2099 1.1858-1.19214-.4761-2.85604-1.6637-1.66401-1.7655 1.77491-3.4079 3.60561-4.9916 5.46441-1.6811-1.4993-3.3947-2.931-5.20275-4.2933-1.24546-.93745-3.09538.9037-1.83564 1.852 1.87814 1.4156 3.67469 2.9275 5.41609 4.4893-1.552 1.9719-2.99563 4.0335-4.29965 6.2523-.84857 1.4421 1.31143 2.6269 2.16095 1.1795 1.2019-2.0431 2.2518-4.2242 3.6765-6.0483 1.873 1.7494 3.7744 3.6265 5.2375 5.0885.7307.7313 2.5747-1.1133 1.8433-1.8436z"/><path d="m28.4312 9.72455c-2.8429-5.86837-8.4065-7.872-14.1653-7.91628.3554-.822388.022-1.942645-1.0244-1.7950582-2.5799.3644572-4.99066 1.3741682-7.02951 2.8539682-.78195.20298-1.54546.42688-2.27885.66963-.93367.30865-1.03867 1.39685-.62047 2.05701-3.142078 3.82806-4.40503 9.15068-2.21261 14.64348 3.59654 9.0106 15.55544 12.4355 23.32604 7.5009 5.8305-3.7035 6.9455-11.9435 4.005-18.01392zm-3.8376 14.60155c-5.256 5.568-15.96883 3.1249-20.03135-2.7179-4.012621-5.7676-1.95939-12.60158 2.66287-16.33098 6.40488-1.6305 13.93318-1.69881 18.24298 4.33376 3.1494 4.40952 2.8017 10.81852-.8747 14.71582z"/></g></svg>