<svg fill="none" height="41" viewBox="0 0 42 41" width="42" xmlns="http://www.w3.org/2000/svg"><path d="m14.6916 14.7761c1.5537.7066 2.7967.5366 4.1028.3023 1.7213-.3088 2.2353.2728 2.477 2.6135-.3717.2275-.82.5016-1.3658.835-2.055-.4553-4.1768-.6809-6.3639-.2485-.7769.1536-1.6605-.251-2.5428-.4094-1.33179-3.1623-.0801-6.35-.5748-9.33078.9836-.91507 1.4376-1.03695 1.9161-.47867.3401.3963.6939.86184.8075 1.35256.1671.71969.1248 1.48919.1712 2.23159.861.3812 1.4637.0253 1.9907-.6288 1.7968-2.22999 4.2124-2.8301 6.9341-2.75957 4.4662.11516 8.1294 2.03167 11.3879 4.89007 1.2529 1.0994 2.161 2.4751 2.4045 4.1265.2198 1.4914.4794 3.0888.176 4.5275-.8653 4.109-2.4724 7.8844-6.1412 10.3936-.2691.1839-.6036.3372-.7716.5938-1.4667 2.244-3.7726 3.2037-6.3703 4.1629-2.6542-.7812-5.7925-.9608-7.9372-3.598.2097-.5275.4035-1.0159.6319-1.5902 1.4384-.1371 2.6537.3709 3.5929 1.2357 2.6452 2.435 4.9192 1.87 7.3427-.0121 3.465-2.6915 6.3547-5.9219 7.2423-10.4708.7119-3.6497-.5454-6.3842-3.9985-8.8978-.8684-.6323-1.8147-1.1754-2.7772-1.6555-2.5238-1.2592-5.1499-1.7566-7.8308-.4916-1.3714.6471-2.664 1.4702-3.961 2.2658-.223.1358-.2886.533-.5427 1.0417z" fill="#000"/></svg>